# xmcd
#
# Track frame offsets: 
#        150
#        28281
#        43001
#        58842
#        69069
#        84921
#        102307
#        124271
#        139066
#        155243
#        169484
#        188775
#        206656
#        233810
#        260911
#        286970
#        309688
#
# Disc length: 4437 seconds
#
# Revision: 0
# Processed by: cddbd v1.5.2PL0 Copyright (c) Steve Scherf et al.
# Submitted via: ExactAudioCopy v0.99pb5
#
DISCID=04115311
DTITLE=Various Artist - Stillen and Chillen (Sanfte Töne für die schönste Zeit 
DTITLE=zu Zweit)[CD2]
DYEAR=2008
DGENRE=Ambient
TTITLE0=Paco Fernandez - Ando Sorbe Agua
TTITLE1=The Love Project and Friends - Sunrise
TTITLE2=The Love Project and Friends - E Menina (Hey Girl)
TTITLE3=The Love Project and Friends - The Girl From Ipanema
TTITLE4=The Love Project and Friends - So Nice (Summer Samba)
TTITLE5=The Love Project and Friends - Inside My Love
TTITLE6=The Love Project and Friends - Just The Way You Are
TTITLE7=The Love Project and Friends - Love Will Tear Us Apart
TTITLE8=The Love Project and Friends - You Give Me Something
TTITLE9=BND - Do You Want To Know A Secret
TTITLE10=Cupsurfer - Finishin' The Boat (feat. Karen)
TTITLE11=The Love Project and Friends - La Coccinelle
TTITLE12=The Love Project and Friends - Into The Dawn
TTITLE13=The Love Project and Friends - My Nightwalk
TTITLE14=The Love Project and Friends - La Mère Diane
TTITLE15=The Love Project and Friends - Sleepwalking
TTITLE16=The Porter Project - Night And Day
EXTD=
EXTT0=
EXTT1=
EXTT2=
EXTT3=
EXTT4=
EXTT5=
EXTT6=
EXTT7=
EXTT8=
EXTT9=
EXTT10=
EXTT11=
EXTT12=
EXTT13=
EXTT14=
EXTT15=
EXTT16=
PLAYORDER=
